<mxfile host="app.diagrams.net" modified="2021-08-31T13:21:27.838Z" agent="5.0 (Windows NT 10.0; Win64; x64) AppleWebKit/537.36 (KHTML, like Gecko) Chrome/92.0.4515.159 Safari/537.36" etag="GHWynyvBGBArFFWQsfrG" version="14.9.9" type="github">
  <diagram id="nL8ktgV9zuU1H_HYco0x" name="Page-1">
    <mxGraphModel dx="1718" dy="2650" grid="0" gridSize="10" guides="1" tooltips="1" connect="1" arrows="1" fold="1" page="1" pageScale="1" pageWidth="850" pageHeight="1100" math="0" shadow="0">
      <root>
        <mxCell id="0" />
        <mxCell id="1" parent="0" />
        <mxCell id="C_CdFiHfuuK_WF809C5B-1" value="Studio_Type" style="shape=table;startSize=30;container=1;collapsible=1;childLayout=tableLayout;fixedRows=1;rowLines=0;fontStyle=1;align=center;resizeLast=1;strokeWidth=1;" parent="1" vertex="1">
          <mxGeometry x="-250" y="-1703" width="181" height="120" as="geometry" />
        </mxCell>
        <mxCell id="C_CdFiHfuuK_WF809C5B-2" value="" style="shape=partialRectangle;collapsible=0;dropTarget=0;pointerEvents=0;fillColor=none;top=0;left=0;bottom=1;right=0;points=[[0,0.5],[1,0.5]];portConstraint=eastwest;" parent="C_CdFiHfuuK_WF809C5B-1" vertex="1">
          <mxGeometry y="30" width="181" height="30" as="geometry" />
        </mxCell>
        <mxCell id="C_CdFiHfuuK_WF809C5B-3" value="PK" style="shape=partialRectangle;connectable=0;fillColor=none;top=0;left=0;bottom=0;right=0;fontStyle=1;overflow=hidden;" parent="C_CdFiHfuuK_WF809C5B-2" vertex="1">
          <mxGeometry width="30" height="30" as="geometry" />
        </mxCell>
        <mxCell id="C_CdFiHfuuK_WF809C5B-4" value="studio_type_id" style="shape=partialRectangle;connectable=0;fillColor=none;top=0;left=0;bottom=0;right=0;align=left;spacingLeft=6;fontStyle=5;overflow=hidden;" parent="C_CdFiHfuuK_WF809C5B-2" vertex="1">
          <mxGeometry x="30" width="151" height="30" as="geometry" />
        </mxCell>
        <mxCell id="C_CdFiHfuuK_WF809C5B-5" value="" style="shape=partialRectangle;collapsible=0;dropTarget=0;pointerEvents=0;fillColor=none;top=0;left=0;bottom=0;right=0;points=[[0,0.5],[1,0.5]];portConstraint=eastwest;strokeWidth=10;" parent="C_CdFiHfuuK_WF809C5B-1" vertex="1">
          <mxGeometry y="60" width="181" height="30" as="geometry" />
        </mxCell>
        <mxCell id="C_CdFiHfuuK_WF809C5B-6" value="" style="shape=partialRectangle;connectable=0;fillColor=none;top=0;left=0;bottom=0;right=0;editable=1;overflow=hidden;" parent="C_CdFiHfuuK_WF809C5B-5" vertex="1">
          <mxGeometry width="30" height="30" as="geometry" />
        </mxCell>
        <mxCell id="C_CdFiHfuuK_WF809C5B-7" value="name" style="shape=partialRectangle;connectable=0;fillColor=none;top=0;left=0;bottom=0;right=0;align=left;spacingLeft=6;overflow=hidden;" parent="C_CdFiHfuuK_WF809C5B-5" vertex="1">
          <mxGeometry x="30" width="151" height="30" as="geometry" />
        </mxCell>
        <mxCell id="C_CdFiHfuuK_WF809C5B-8" value="" style="shape=partialRectangle;collapsible=0;dropTarget=0;pointerEvents=0;fillColor=none;top=0;left=0;bottom=0;right=0;points=[[0,0.5],[1,0.5]];portConstraint=eastwest;strokeWidth=11;" parent="C_CdFiHfuuK_WF809C5B-1" vertex="1">
          <mxGeometry y="90" width="181" height="30" as="geometry" />
        </mxCell>
        <mxCell id="C_CdFiHfuuK_WF809C5B-9" value="" style="shape=partialRectangle;connectable=0;fillColor=none;top=0;left=0;bottom=0;right=0;editable=1;overflow=hidden;" parent="C_CdFiHfuuK_WF809C5B-8" vertex="1">
          <mxGeometry width="30" height="30" as="geometry" />
        </mxCell>
        <mxCell id="C_CdFiHfuuK_WF809C5B-10" value="is_active" style="shape=partialRectangle;connectable=0;fillColor=none;top=0;left=0;bottom=0;right=0;align=left;spacingLeft=6;overflow=hidden;" parent="C_CdFiHfuuK_WF809C5B-8" vertex="1">
          <mxGeometry x="30" width="151" height="30" as="geometry" />
        </mxCell>
        <mxCell id="C_CdFiHfuuK_WF809C5B-20" value="Pass_Category" style="shape=table;startSize=30;container=1;collapsible=1;childLayout=tableLayout;fixedRows=1;rowLines=0;fontStyle=1;align=center;resizeLast=1;strokeWidth=1;" parent="1" vertex="1">
          <mxGeometry x="230" y="-1703" width="181" height="120" as="geometry" />
        </mxCell>
        <mxCell id="C_CdFiHfuuK_WF809C5B-21" value="" style="shape=partialRectangle;collapsible=0;dropTarget=0;pointerEvents=0;fillColor=none;top=0;left=0;bottom=1;right=0;points=[[0,0.5],[1,0.5]];portConstraint=eastwest;" parent="C_CdFiHfuuK_WF809C5B-20" vertex="1">
          <mxGeometry y="30" width="181" height="30" as="geometry" />
        </mxCell>
        <mxCell id="C_CdFiHfuuK_WF809C5B-22" value="PK" style="shape=partialRectangle;connectable=0;fillColor=none;top=0;left=0;bottom=0;right=0;fontStyle=1;overflow=hidden;" parent="C_CdFiHfuuK_WF809C5B-21" vertex="1">
          <mxGeometry width="30" height="30" as="geometry" />
        </mxCell>
        <mxCell id="C_CdFiHfuuK_WF809C5B-23" value="pass_cat_id" style="shape=partialRectangle;connectable=0;fillColor=none;top=0;left=0;bottom=0;right=0;align=left;spacingLeft=6;fontStyle=5;overflow=hidden;" parent="C_CdFiHfuuK_WF809C5B-21" vertex="1">
          <mxGeometry x="30" width="151" height="30" as="geometry" />
        </mxCell>
        <mxCell id="C_CdFiHfuuK_WF809C5B-24" value="" style="shape=partialRectangle;collapsible=0;dropTarget=0;pointerEvents=0;fillColor=none;top=0;left=0;bottom=0;right=0;points=[[0,0.5],[1,0.5]];portConstraint=eastwest;strokeWidth=10;" parent="C_CdFiHfuuK_WF809C5B-20" vertex="1">
          <mxGeometry y="60" width="181" height="30" as="geometry" />
        </mxCell>
        <mxCell id="C_CdFiHfuuK_WF809C5B-25" value="" style="shape=partialRectangle;connectable=0;fillColor=none;top=0;left=0;bottom=0;right=0;editable=1;overflow=hidden;" parent="C_CdFiHfuuK_WF809C5B-24" vertex="1">
          <mxGeometry width="30" height="30" as="geometry" />
        </mxCell>
        <mxCell id="C_CdFiHfuuK_WF809C5B-26" value="name" style="shape=partialRectangle;connectable=0;fillColor=none;top=0;left=0;bottom=0;right=0;align=left;spacingLeft=6;overflow=hidden;" parent="C_CdFiHfuuK_WF809C5B-24" vertex="1">
          <mxGeometry x="30" width="151" height="30" as="geometry" />
        </mxCell>
        <mxCell id="C_CdFiHfuuK_WF809C5B-27" value="" style="shape=partialRectangle;collapsible=0;dropTarget=0;pointerEvents=0;fillColor=none;top=0;left=0;bottom=0;right=0;points=[[0,0.5],[1,0.5]];portConstraint=eastwest;strokeWidth=11;" parent="C_CdFiHfuuK_WF809C5B-20" vertex="1">
          <mxGeometry y="90" width="181" height="30" as="geometry" />
        </mxCell>
        <mxCell id="C_CdFiHfuuK_WF809C5B-28" value="" style="shape=partialRectangle;connectable=0;fillColor=none;top=0;left=0;bottom=0;right=0;editable=1;overflow=hidden;" parent="C_CdFiHfuuK_WF809C5B-27" vertex="1">
          <mxGeometry width="30" height="30" as="geometry" />
        </mxCell>
        <mxCell id="C_CdFiHfuuK_WF809C5B-29" value="is_active" style="shape=partialRectangle;connectable=0;fillColor=none;top=0;left=0;bottom=0;right=0;align=left;spacingLeft=6;overflow=hidden;" parent="C_CdFiHfuuK_WF809C5B-27" vertex="1">
          <mxGeometry x="30" width="151" height="30" as="geometry" />
        </mxCell>
        <mxCell id="C_CdFiHfuuK_WF809C5B-30" value="Pass_Sub_Category" style="shape=table;startSize=30;container=1;collapsible=1;childLayout=tableLayout;fixedRows=1;rowLines=0;fontStyle=1;align=center;resizeLast=1;strokeWidth=1;" parent="1" vertex="1">
          <mxGeometry x="230" y="-1563" width="181" height="240" as="geometry" />
        </mxCell>
        <mxCell id="C_CdFiHfuuK_WF809C5B-31" value="" style="shape=partialRectangle;collapsible=0;dropTarget=0;pointerEvents=0;fillColor=none;top=0;left=0;bottom=1;right=0;points=[[0,0.5],[1,0.5]];portConstraint=eastwest;" parent="C_CdFiHfuuK_WF809C5B-30" vertex="1">
          <mxGeometry y="30" width="181" height="30" as="geometry" />
        </mxCell>
        <mxCell id="C_CdFiHfuuK_WF809C5B-32" value="PK" style="shape=partialRectangle;connectable=0;fillColor=none;top=0;left=0;bottom=0;right=0;fontStyle=1;overflow=hidden;" parent="C_CdFiHfuuK_WF809C5B-31" vertex="1">
          <mxGeometry width="30" height="30" as="geometry" />
        </mxCell>
        <mxCell id="C_CdFiHfuuK_WF809C5B-33" value="pass_sub_cat_id" style="shape=partialRectangle;connectable=0;fillColor=none;top=0;left=0;bottom=0;right=0;align=left;spacingLeft=6;fontStyle=5;overflow=hidden;" parent="C_CdFiHfuuK_WF809C5B-31" vertex="1">
          <mxGeometry x="30" width="151" height="30" as="geometry" />
        </mxCell>
        <mxCell id="C_CdFiHfuuK_WF809C5B-40" style="shape=partialRectangle;collapsible=0;dropTarget=0;pointerEvents=0;fillColor=none;top=0;left=0;bottom=1;right=0;points=[[0,0.5],[1,0.5]];portConstraint=eastwest;" parent="C_CdFiHfuuK_WF809C5B-30" vertex="1">
          <mxGeometry y="60" width="181" height="30" as="geometry" />
        </mxCell>
        <mxCell id="C_CdFiHfuuK_WF809C5B-41" value="FK" style="shape=partialRectangle;connectable=0;fillColor=none;top=0;left=0;bottom=0;right=0;fontStyle=1;overflow=hidden;" parent="C_CdFiHfuuK_WF809C5B-40" vertex="1">
          <mxGeometry width="30" height="30" as="geometry" />
        </mxCell>
        <mxCell id="C_CdFiHfuuK_WF809C5B-42" value="pass_cat_id" style="shape=partialRectangle;connectable=0;fillColor=none;top=0;left=0;bottom=0;right=0;align=left;spacingLeft=6;fontStyle=5;overflow=hidden;" parent="C_CdFiHfuuK_WF809C5B-40" vertex="1">
          <mxGeometry x="30" width="151" height="30" as="geometry" />
        </mxCell>
        <mxCell id="C_CdFiHfuuK_WF809C5B-34" value="" style="shape=partialRectangle;collapsible=0;dropTarget=0;pointerEvents=0;fillColor=none;top=0;left=0;bottom=0;right=0;points=[[0,0.5],[1,0.5]];portConstraint=eastwest;strokeWidth=10;" parent="C_CdFiHfuuK_WF809C5B-30" vertex="1">
          <mxGeometry y="90" width="181" height="30" as="geometry" />
        </mxCell>
        <mxCell id="C_CdFiHfuuK_WF809C5B-35" value="" style="shape=partialRectangle;connectable=0;fillColor=none;top=0;left=0;bottom=0;right=0;editable=1;overflow=hidden;" parent="C_CdFiHfuuK_WF809C5B-34" vertex="1">
          <mxGeometry width="30" height="30" as="geometry" />
        </mxCell>
        <mxCell id="C_CdFiHfuuK_WF809C5B-36" value="name" style="shape=partialRectangle;connectable=0;fillColor=none;top=0;left=0;bottom=0;right=0;align=left;spacingLeft=6;overflow=hidden;" parent="C_CdFiHfuuK_WF809C5B-34" vertex="1">
          <mxGeometry x="30" width="151" height="30" as="geometry" />
        </mxCell>
        <mxCell id="C_CdFiHfuuK_WF809C5B-46" style="shape=partialRectangle;collapsible=0;dropTarget=0;pointerEvents=0;fillColor=none;top=0;left=0;bottom=0;right=0;points=[[0,0.5],[1,0.5]];portConstraint=eastwest;strokeWidth=10;" parent="C_CdFiHfuuK_WF809C5B-30" vertex="1">
          <mxGeometry y="120" width="181" height="30" as="geometry" />
        </mxCell>
        <mxCell id="C_CdFiHfuuK_WF809C5B-47" style="shape=partialRectangle;connectable=0;fillColor=none;top=0;left=0;bottom=0;right=0;editable=1;overflow=hidden;" parent="C_CdFiHfuuK_WF809C5B-46" vertex="1">
          <mxGeometry width="30" height="30" as="geometry" />
        </mxCell>
        <mxCell id="C_CdFiHfuuK_WF809C5B-48" value="sesssion" style="shape=partialRectangle;connectable=0;fillColor=none;top=0;left=0;bottom=0;right=0;align=left;spacingLeft=6;overflow=hidden;" parent="C_CdFiHfuuK_WF809C5B-46" vertex="1">
          <mxGeometry x="30" width="151" height="30" as="geometry" />
        </mxCell>
        <mxCell id="C_CdFiHfuuK_WF809C5B-43" style="shape=partialRectangle;collapsible=0;dropTarget=0;pointerEvents=0;fillColor=none;top=0;left=0;bottom=0;right=0;points=[[0,0.5],[1,0.5]];portConstraint=eastwest;strokeWidth=10;" parent="C_CdFiHfuuK_WF809C5B-30" vertex="1">
          <mxGeometry y="150" width="181" height="30" as="geometry" />
        </mxCell>
        <mxCell id="C_CdFiHfuuK_WF809C5B-44" style="shape=partialRectangle;connectable=0;fillColor=none;top=0;left=0;bottom=0;right=0;editable=1;overflow=hidden;" parent="C_CdFiHfuuK_WF809C5B-43" vertex="1">
          <mxGeometry width="30" height="30" as="geometry" />
        </mxCell>
        <mxCell id="C_CdFiHfuuK_WF809C5B-45" value="cost" style="shape=partialRectangle;connectable=0;fillColor=none;top=0;left=0;bottom=0;right=0;align=left;spacingLeft=6;overflow=hidden;" parent="C_CdFiHfuuK_WF809C5B-43" vertex="1">
          <mxGeometry x="30" width="151" height="30" as="geometry" />
        </mxCell>
        <mxCell id="C_CdFiHfuuK_WF809C5B-49" style="shape=partialRectangle;collapsible=0;dropTarget=0;pointerEvents=0;fillColor=none;top=0;left=0;bottom=0;right=0;points=[[0,0.5],[1,0.5]];portConstraint=eastwest;strokeWidth=10;" parent="C_CdFiHfuuK_WF809C5B-30" vertex="1">
          <mxGeometry y="180" width="181" height="30" as="geometry" />
        </mxCell>
        <mxCell id="C_CdFiHfuuK_WF809C5B-50" style="shape=partialRectangle;connectable=0;fillColor=none;top=0;left=0;bottom=0;right=0;editable=1;overflow=hidden;" parent="C_CdFiHfuuK_WF809C5B-49" vertex="1">
          <mxGeometry width="30" height="30" as="geometry" />
        </mxCell>
        <mxCell id="C_CdFiHfuuK_WF809C5B-51" value="discount" style="shape=partialRectangle;connectable=0;fillColor=none;top=0;left=0;bottom=0;right=0;align=left;spacingLeft=6;overflow=hidden;" parent="C_CdFiHfuuK_WF809C5B-49" vertex="1">
          <mxGeometry x="30" width="151" height="30" as="geometry" />
        </mxCell>
        <mxCell id="C_CdFiHfuuK_WF809C5B-37" value="" style="shape=partialRectangle;collapsible=0;dropTarget=0;pointerEvents=0;fillColor=none;top=0;left=0;bottom=0;right=0;points=[[0,0.5],[1,0.5]];portConstraint=eastwest;strokeWidth=11;" parent="C_CdFiHfuuK_WF809C5B-30" vertex="1">
          <mxGeometry y="210" width="181" height="30" as="geometry" />
        </mxCell>
        <mxCell id="C_CdFiHfuuK_WF809C5B-38" value="" style="shape=partialRectangle;connectable=0;fillColor=none;top=0;left=0;bottom=0;right=0;editable=1;overflow=hidden;" parent="C_CdFiHfuuK_WF809C5B-37" vertex="1">
          <mxGeometry width="30" height="30" as="geometry" />
        </mxCell>
        <mxCell id="C_CdFiHfuuK_WF809C5B-39" value="is_active" style="shape=partialRectangle;connectable=0;fillColor=none;top=0;left=0;bottom=0;right=0;align=left;spacingLeft=6;overflow=hidden;" parent="C_CdFiHfuuK_WF809C5B-37" vertex="1">
          <mxGeometry x="30" width="151" height="30" as="geometry" />
        </mxCell>
        <mxCell id="C_CdFiHfuuK_WF809C5B-52" value="" style="edgeStyle=entityRelationEdgeStyle;fontSize=12;html=1;endArrow=ERzeroToMany;startArrow=ERmandOne;fillColor=#f8cecc;strokeColor=#b85450;exitX=1;exitY=0.5;exitDx=0;exitDy=0;entryX=1;entryY=0.5;entryDx=0;entryDy=0;" parent="1" source="C_CdFiHfuuK_WF809C5B-21" target="C_CdFiHfuuK_WF809C5B-40" edge="1">
          <mxGeometry width="100" height="100" relative="1" as="geometry">
            <mxPoint x="410" y="-488" as="sourcePoint" />
            <mxPoint x="690" y="-393" as="targetPoint" />
          </mxGeometry>
        </mxCell>
        <mxCell id="C_CdFiHfuuK_WF809C5B-57" value="Studios" style="shape=table;startSize=30;container=1;collapsible=1;childLayout=tableLayout;fixedRows=1;rowLines=0;fontStyle=1;align=center;resizeLast=1;strokeWidth=1;perimeterSpacing=0;" parent="1" vertex="1">
          <mxGeometry x="-250" y="-1573" width="181" height="330" as="geometry" />
        </mxCell>
        <mxCell id="C_CdFiHfuuK_WF809C5B-58" value="" style="shape=partialRectangle;collapsible=0;dropTarget=0;pointerEvents=0;fillColor=none;top=0;left=0;bottom=1;right=0;points=[[0,0.5],[1,0.5]];portConstraint=eastwest;" parent="C_CdFiHfuuK_WF809C5B-57" vertex="1">
          <mxGeometry y="30" width="181" height="30" as="geometry" />
        </mxCell>
        <mxCell id="C_CdFiHfuuK_WF809C5B-59" value="PK" style="shape=partialRectangle;connectable=0;fillColor=none;top=0;left=0;bottom=0;right=0;fontStyle=1;overflow=hidden;" parent="C_CdFiHfuuK_WF809C5B-58" vertex="1">
          <mxGeometry width="30" height="30" as="geometry" />
        </mxCell>
        <mxCell id="C_CdFiHfuuK_WF809C5B-60" value="studio_id" style="shape=partialRectangle;connectable=0;fillColor=none;top=0;left=0;bottom=0;right=0;align=left;spacingLeft=6;fontStyle=5;overflow=hidden;" parent="C_CdFiHfuuK_WF809C5B-58" vertex="1">
          <mxGeometry x="30" width="151" height="30" as="geometry" />
        </mxCell>
        <mxCell id="C_CdFiHfuuK_WF809C5B-73" style="shape=partialRectangle;collapsible=0;dropTarget=0;pointerEvents=0;fillColor=none;top=0;left=0;bottom=1;right=0;points=[[0,0.5],[1,0.5]];portConstraint=eastwest;" parent="C_CdFiHfuuK_WF809C5B-57" vertex="1">
          <mxGeometry y="60" width="181" height="30" as="geometry" />
        </mxCell>
        <mxCell id="C_CdFiHfuuK_WF809C5B-74" value="FK" style="shape=partialRectangle;connectable=0;fillColor=none;top=0;left=0;bottom=0;right=0;fontStyle=1;overflow=hidden;" parent="C_CdFiHfuuK_WF809C5B-73" vertex="1">
          <mxGeometry width="30" height="30" as="geometry" />
        </mxCell>
        <mxCell id="C_CdFiHfuuK_WF809C5B-75" value="studio_type_id" style="shape=partialRectangle;connectable=0;fillColor=none;top=0;left=0;bottom=0;right=0;align=left;spacingLeft=6;fontStyle=5;overflow=hidden;" parent="C_CdFiHfuuK_WF809C5B-73" vertex="1">
          <mxGeometry x="30" width="151" height="30" as="geometry" />
        </mxCell>
        <mxCell id="C_CdFiHfuuK_WF809C5B-70" style="shape=partialRectangle;collapsible=0;dropTarget=0;pointerEvents=0;fillColor=none;top=0;left=0;bottom=1;right=0;points=[[0,0.5],[1,0.5]];portConstraint=eastwest;" parent="C_CdFiHfuuK_WF809C5B-57" vertex="1">
          <mxGeometry y="90" width="181" height="30" as="geometry" />
        </mxCell>
        <mxCell id="C_CdFiHfuuK_WF809C5B-71" value="FK" style="shape=partialRectangle;connectable=0;fillColor=none;top=0;left=0;bottom=0;right=0;fontStyle=1;overflow=hidden;" parent="C_CdFiHfuuK_WF809C5B-70" vertex="1">
          <mxGeometry width="30" height="30" as="geometry" />
        </mxCell>
        <mxCell id="C_CdFiHfuuK_WF809C5B-72" value="user_id" style="shape=partialRectangle;connectable=0;fillColor=none;top=0;left=0;bottom=0;right=0;align=left;spacingLeft=6;fontStyle=5;overflow=hidden;" parent="C_CdFiHfuuK_WF809C5B-70" vertex="1">
          <mxGeometry x="30" width="151" height="30" as="geometry" />
        </mxCell>
        <mxCell id="u4YXkt8dIdVdWwFaIPzx-60" style="shape=partialRectangle;collapsible=0;dropTarget=0;pointerEvents=0;fillColor=none;top=0;left=0;bottom=1;right=0;points=[[0,0.5],[1,0.5]];portConstraint=eastwest;" parent="C_CdFiHfuuK_WF809C5B-57" vertex="1">
          <mxGeometry y="120" width="181" height="30" as="geometry" />
        </mxCell>
        <mxCell id="u4YXkt8dIdVdWwFaIPzx-61" style="shape=partialRectangle;connectable=0;fillColor=none;top=0;left=0;bottom=0;right=0;fontStyle=1;overflow=hidden;" parent="u4YXkt8dIdVdWwFaIPzx-60" vertex="1">
          <mxGeometry width="30" height="30" as="geometry" />
        </mxCell>
        <mxCell id="u4YXkt8dIdVdWwFaIPzx-62" value="name" style="shape=partialRectangle;connectable=0;fillColor=none;top=0;left=0;bottom=0;right=0;align=left;spacingLeft=6;fontStyle=0;overflow=hidden;" parent="u4YXkt8dIdVdWwFaIPzx-60" vertex="1">
          <mxGeometry x="30" width="151" height="30" as="geometry" />
        </mxCell>
        <mxCell id="u4YXkt8dIdVdWwFaIPzx-63" style="shape=partialRectangle;collapsible=0;dropTarget=0;pointerEvents=0;fillColor=none;top=0;left=0;bottom=1;right=0;points=[[0,0.5],[1,0.5]];portConstraint=eastwest;" parent="C_CdFiHfuuK_WF809C5B-57" vertex="1">
          <mxGeometry y="150" width="181" height="30" as="geometry" />
        </mxCell>
        <mxCell id="u4YXkt8dIdVdWwFaIPzx-64" style="shape=partialRectangle;connectable=0;fillColor=none;top=0;left=0;bottom=0;right=0;fontStyle=1;overflow=hidden;" parent="u4YXkt8dIdVdWwFaIPzx-63" vertex="1">
          <mxGeometry width="30" height="30" as="geometry" />
        </mxCell>
        <mxCell id="u4YXkt8dIdVdWwFaIPzx-65" value="location" style="shape=partialRectangle;connectable=0;fillColor=none;top=0;left=0;bottom=0;right=0;align=left;spacingLeft=6;fontStyle=0;overflow=hidden;" parent="u4YXkt8dIdVdWwFaIPzx-63" vertex="1">
          <mxGeometry x="30" width="151" height="30" as="geometry" />
        </mxCell>
        <mxCell id="C_CdFiHfuuK_WF809C5B-67" style="shape=partialRectangle;collapsible=0;dropTarget=0;pointerEvents=0;fillColor=none;top=0;left=0;bottom=1;right=0;points=[[0,0.5],[1,0.5]];portConstraint=eastwest;" parent="C_CdFiHfuuK_WF809C5B-57" vertex="1">
          <mxGeometry y="180" width="181" height="30" as="geometry" />
        </mxCell>
        <mxCell id="C_CdFiHfuuK_WF809C5B-68" style="shape=partialRectangle;connectable=0;fillColor=none;top=0;left=0;bottom=0;right=0;fontStyle=1;overflow=hidden;" parent="C_CdFiHfuuK_WF809C5B-67" vertex="1">
          <mxGeometry width="30" height="30" as="geometry" />
        </mxCell>
        <mxCell id="C_CdFiHfuuK_WF809C5B-69" value="information" style="shape=partialRectangle;connectable=0;fillColor=none;top=0;left=0;bottom=0;right=0;align=left;spacingLeft=6;fontStyle=0;overflow=hidden;strokeWidth=1;" parent="C_CdFiHfuuK_WF809C5B-67" vertex="1">
          <mxGeometry x="30" width="151" height="30" as="geometry" />
        </mxCell>
        <mxCell id="u4YXkt8dIdVdWwFaIPzx-72" style="shape=partialRectangle;collapsible=0;dropTarget=0;pointerEvents=0;fillColor=none;top=0;left=0;bottom=1;right=0;points=[[0,0.5],[1,0.5]];portConstraint=eastwest;" parent="C_CdFiHfuuK_WF809C5B-57" vertex="1">
          <mxGeometry y="210" width="181" height="30" as="geometry" />
        </mxCell>
        <mxCell id="u4YXkt8dIdVdWwFaIPzx-73" style="shape=partialRectangle;connectable=0;fillColor=none;top=0;left=0;bottom=0;right=0;fontStyle=1;overflow=hidden;" parent="u4YXkt8dIdVdWwFaIPzx-72" vertex="1">
          <mxGeometry width="30" height="30" as="geometry" />
        </mxCell>
        <mxCell id="u4YXkt8dIdVdWwFaIPzx-74" value="addresss" style="shape=partialRectangle;connectable=0;fillColor=none;top=0;left=0;bottom=0;right=0;align=left;spacingLeft=6;fontStyle=0;overflow=hidden;strokeWidth=1;" parent="u4YXkt8dIdVdWwFaIPzx-72" vertex="1">
          <mxGeometry x="30" width="151" height="30" as="geometry" />
        </mxCell>
        <mxCell id="u4YXkt8dIdVdWwFaIPzx-69" style="shape=partialRectangle;collapsible=0;dropTarget=0;pointerEvents=0;fillColor=none;top=0;left=0;bottom=1;right=0;points=[[0,0.5],[1,0.5]];portConstraint=eastwest;" parent="C_CdFiHfuuK_WF809C5B-57" vertex="1">
          <mxGeometry y="240" width="181" height="30" as="geometry" />
        </mxCell>
        <mxCell id="u4YXkt8dIdVdWwFaIPzx-70" style="shape=partialRectangle;connectable=0;fillColor=none;top=0;left=0;bottom=0;right=0;fontStyle=1;overflow=hidden;" parent="u4YXkt8dIdVdWwFaIPzx-69" vertex="1">
          <mxGeometry width="30" height="30" as="geometry" />
        </mxCell>
        <mxCell id="u4YXkt8dIdVdWwFaIPzx-71" value="logo" style="shape=partialRectangle;connectable=0;fillColor=none;top=0;left=0;bottom=0;right=0;align=left;spacingLeft=6;fontStyle=0;overflow=hidden;strokeWidth=1;" parent="u4YXkt8dIdVdWwFaIPzx-69" vertex="1">
          <mxGeometry x="30" width="151" height="30" as="geometry" />
        </mxCell>
        <mxCell id="u4YXkt8dIdVdWwFaIPzx-66" style="shape=partialRectangle;collapsible=0;dropTarget=0;pointerEvents=0;fillColor=none;top=0;left=0;bottom=1;right=0;points=[[0,0.5],[1,0.5]];portConstraint=eastwest;" parent="C_CdFiHfuuK_WF809C5B-57" vertex="1">
          <mxGeometry y="270" width="181" height="30" as="geometry" />
        </mxCell>
        <mxCell id="u4YXkt8dIdVdWwFaIPzx-67" style="shape=partialRectangle;connectable=0;fillColor=none;top=0;left=0;bottom=0;right=0;fontStyle=1;overflow=hidden;" parent="u4YXkt8dIdVdWwFaIPzx-66" vertex="1">
          <mxGeometry width="30" height="30" as="geometry" />
        </mxCell>
        <mxCell id="u4YXkt8dIdVdWwFaIPzx-68" value="is_review" style="shape=partialRectangle;connectable=0;fillColor=none;top=0;left=0;bottom=0;right=0;align=left;spacingLeft=6;fontStyle=0;overflow=hidden;strokeWidth=1;" parent="u4YXkt8dIdVdWwFaIPzx-66" vertex="1">
          <mxGeometry x="30" width="151" height="30" as="geometry" />
        </mxCell>
        <mxCell id="C_CdFiHfuuK_WF809C5B-64" value="" style="shape=partialRectangle;collapsible=0;dropTarget=0;pointerEvents=0;fillColor=none;top=0;left=0;bottom=0;right=0;points=[[0,0.5],[1,0.5]];portConstraint=eastwest;strokeWidth=11;" parent="C_CdFiHfuuK_WF809C5B-57" vertex="1">
          <mxGeometry y="300" width="181" height="30" as="geometry" />
        </mxCell>
        <mxCell id="C_CdFiHfuuK_WF809C5B-65" value="" style="shape=partialRectangle;connectable=0;fillColor=none;top=0;left=0;bottom=0;right=0;editable=1;overflow=hidden;" parent="C_CdFiHfuuK_WF809C5B-64" vertex="1">
          <mxGeometry width="30" height="30" as="geometry" />
        </mxCell>
        <mxCell id="C_CdFiHfuuK_WF809C5B-66" value="is_active" style="shape=partialRectangle;connectable=0;fillColor=none;top=0;left=0;bottom=0;right=0;align=left;spacingLeft=6;overflow=hidden;" parent="C_CdFiHfuuK_WF809C5B-64" vertex="1">
          <mxGeometry x="30" width="151" height="30" as="geometry" />
        </mxCell>
        <mxCell id="C_CdFiHfuuK_WF809C5B-76" value="" style="edgeStyle=entityRelationEdgeStyle;fontSize=12;html=1;endArrow=ERzeroToMany;startArrow=ERmandOne;fillColor=#f8cecc;strokeColor=#b85450;entryX=1;entryY=0.667;entryDx=0;entryDy=0;entryPerimeter=0;" parent="1" target="C_CdFiHfuuK_WF809C5B-73" edge="1">
          <mxGeometry width="100" height="100" relative="1" as="geometry">
            <mxPoint x="-70" y="-1649" as="sourcePoint" />
            <mxPoint x="190" y="-343" as="targetPoint" />
          </mxGeometry>
        </mxCell>
        <mxCell id="u4YXkt8dIdVdWwFaIPzx-28" value="" style="edgeStyle=entityRelationEdgeStyle;fontSize=12;html=1;endArrow=ERmandOne;startArrow=ERmandOne;exitX=1;exitY=0.5;exitDx=0;exitDy=0;exitPerimeter=0;fillColor=#f8cecc;strokeColor=#b85450;" parent="1" source="u4YXkt8dIdVdWwFaIPzx-30" target="C_CdFiHfuuK_WF809C5B-70" edge="1">
          <mxGeometry width="100" height="100" relative="1" as="geometry">
            <mxPoint x="-70" y="-1278" as="sourcePoint" />
            <mxPoint x="-30" y="-1473" as="targetPoint" />
          </mxGeometry>
        </mxCell>
        <mxCell id="u4YXkt8dIdVdWwFaIPzx-29" value="user_master" style="shape=table;startSize=30;container=1;collapsible=1;childLayout=tableLayout;fixedRows=1;rowLines=0;fontStyle=1;align=center;resizeLast=1;strokeWidth=1;perimeterSpacing=0;" parent="1" vertex="1">
          <mxGeometry x="-250" y="-1223" width="181" height="210" as="geometry" />
        </mxCell>
        <mxCell id="u4YXkt8dIdVdWwFaIPzx-30" value="" style="shape=partialRectangle;collapsible=0;dropTarget=0;pointerEvents=0;fillColor=none;top=0;left=0;bottom=1;right=0;points=[[0,0.5],[1,0.5]];portConstraint=eastwest;" parent="u4YXkt8dIdVdWwFaIPzx-29" vertex="1">
          <mxGeometry y="30" width="181" height="30" as="geometry" />
        </mxCell>
        <mxCell id="u4YXkt8dIdVdWwFaIPzx-31" value="PK" style="shape=partialRectangle;connectable=0;fillColor=none;top=0;left=0;bottom=0;right=0;fontStyle=1;overflow=hidden;" parent="u4YXkt8dIdVdWwFaIPzx-30" vertex="1">
          <mxGeometry width="30" height="30" as="geometry" />
        </mxCell>
        <mxCell id="u4YXkt8dIdVdWwFaIPzx-32" value="user_id" style="shape=partialRectangle;connectable=0;fillColor=none;top=0;left=0;bottom=0;right=0;align=left;spacingLeft=6;fontStyle=5;overflow=hidden;" parent="u4YXkt8dIdVdWwFaIPzx-30" vertex="1">
          <mxGeometry x="30" width="151" height="30" as="geometry" />
        </mxCell>
        <mxCell id="u4YXkt8dIdVdWwFaIPzx-33" style="shape=partialRectangle;collapsible=0;dropTarget=0;pointerEvents=0;fillColor=none;top=0;left=0;bottom=1;right=0;points=[[0,0.5],[1,0.5]];portConstraint=eastwest;" parent="u4YXkt8dIdVdWwFaIPzx-29" vertex="1">
          <mxGeometry y="60" width="181" height="30" as="geometry" />
        </mxCell>
        <mxCell id="u4YXkt8dIdVdWwFaIPzx-34" value="FK" style="shape=partialRectangle;connectable=0;fillColor=none;top=0;left=0;bottom=0;right=0;fontStyle=1;overflow=hidden;" parent="u4YXkt8dIdVdWwFaIPzx-33" vertex="1">
          <mxGeometry width="30" height="30" as="geometry" />
        </mxCell>
        <mxCell id="u4YXkt8dIdVdWwFaIPzx-35" value="role_id" style="shape=partialRectangle;connectable=0;fillColor=none;top=0;left=0;bottom=0;right=0;align=left;spacingLeft=6;fontStyle=5;overflow=hidden;" parent="u4YXkt8dIdVdWwFaIPzx-33" vertex="1">
          <mxGeometry x="30" width="151" height="30" as="geometry" />
        </mxCell>
        <mxCell id="u4YXkt8dIdVdWwFaIPzx-36" style="shape=partialRectangle;collapsible=0;dropTarget=0;pointerEvents=0;fillColor=none;top=0;left=0;bottom=1;right=0;points=[[0,0.5],[1,0.5]];portConstraint=eastwest;" parent="u4YXkt8dIdVdWwFaIPzx-29" vertex="1">
          <mxGeometry y="90" width="181" height="30" as="geometry" />
        </mxCell>
        <mxCell id="u4YXkt8dIdVdWwFaIPzx-37" value="" style="shape=partialRectangle;connectable=0;fillColor=none;top=0;left=0;bottom=0;right=0;fontStyle=1;overflow=hidden;" parent="u4YXkt8dIdVdWwFaIPzx-36" vertex="1">
          <mxGeometry width="30" height="30" as="geometry" />
        </mxCell>
        <mxCell id="u4YXkt8dIdVdWwFaIPzx-38" value="user_name" style="shape=partialRectangle;connectable=0;fillColor=none;top=0;left=0;bottom=0;right=0;align=left;spacingLeft=6;fontStyle=4;overflow=hidden;" parent="u4YXkt8dIdVdWwFaIPzx-36" vertex="1">
          <mxGeometry x="30" width="151" height="30" as="geometry" />
        </mxCell>
        <mxCell id="u4YXkt8dIdVdWwFaIPzx-39" style="shape=partialRectangle;collapsible=0;dropTarget=0;pointerEvents=0;fillColor=none;top=0;left=0;bottom=1;right=0;points=[[0,0.5],[1,0.5]];portConstraint=eastwest;" parent="u4YXkt8dIdVdWwFaIPzx-29" vertex="1">
          <mxGeometry y="120" width="181" height="30" as="geometry" />
        </mxCell>
        <mxCell id="u4YXkt8dIdVdWwFaIPzx-40" value="unq" style="shape=partialRectangle;connectable=0;fillColor=none;top=0;left=0;bottom=0;right=0;fontStyle=1;overflow=hidden;" parent="u4YXkt8dIdVdWwFaIPzx-39" vertex="1">
          <mxGeometry width="30" height="30" as="geometry" />
        </mxCell>
        <mxCell id="u4YXkt8dIdVdWwFaIPzx-41" value="email_id" style="shape=partialRectangle;connectable=0;fillColor=none;top=0;left=0;bottom=0;right=0;align=left;spacingLeft=6;fontStyle=4;overflow=hidden;strokeWidth=1;" parent="u4YXkt8dIdVdWwFaIPzx-39" vertex="1">
          <mxGeometry x="30" width="151" height="30" as="geometry" />
        </mxCell>
        <mxCell id="u4YXkt8dIdVdWwFaIPzx-42" value="" style="shape=partialRectangle;collapsible=0;dropTarget=0;pointerEvents=0;fillColor=none;top=0;left=0;bottom=0;right=0;points=[[0,0.5],[1,0.5]];portConstraint=eastwest;strokeWidth=10;" parent="u4YXkt8dIdVdWwFaIPzx-29" vertex="1">
          <mxGeometry y="150" width="181" height="30" as="geometry" />
        </mxCell>
        <mxCell id="u4YXkt8dIdVdWwFaIPzx-43" value="" style="shape=partialRectangle;connectable=0;fillColor=none;top=0;left=0;bottom=0;right=0;editable=1;overflow=hidden;" parent="u4YXkt8dIdVdWwFaIPzx-42" vertex="1">
          <mxGeometry width="30" height="30" as="geometry" />
        </mxCell>
        <mxCell id="u4YXkt8dIdVdWwFaIPzx-44" value="password" style="shape=partialRectangle;connectable=0;fillColor=none;top=0;left=0;bottom=0;right=0;align=left;spacingLeft=6;overflow=hidden;" parent="u4YXkt8dIdVdWwFaIPzx-42" vertex="1">
          <mxGeometry x="30" width="151" height="30" as="geometry" />
        </mxCell>
        <mxCell id="u4YXkt8dIdVdWwFaIPzx-45" value="" style="shape=partialRectangle;collapsible=0;dropTarget=0;pointerEvents=0;fillColor=none;top=0;left=0;bottom=0;right=0;points=[[0,0.5],[1,0.5]];portConstraint=eastwest;strokeWidth=11;" parent="u4YXkt8dIdVdWwFaIPzx-29" vertex="1">
          <mxGeometry y="180" width="181" height="30" as="geometry" />
        </mxCell>
        <mxCell id="u4YXkt8dIdVdWwFaIPzx-46" value="" style="shape=partialRectangle;connectable=0;fillColor=none;top=0;left=0;bottom=0;right=0;editable=1;overflow=hidden;" parent="u4YXkt8dIdVdWwFaIPzx-45" vertex="1">
          <mxGeometry width="30" height="30" as="geometry" />
        </mxCell>
        <mxCell id="u4YXkt8dIdVdWwFaIPzx-47" value="is_active" style="shape=partialRectangle;connectable=0;fillColor=none;top=0;left=0;bottom=0;right=0;align=left;spacingLeft=6;overflow=hidden;" parent="u4YXkt8dIdVdWwFaIPzx-45" vertex="1">
          <mxGeometry x="30" width="151" height="30" as="geometry" />
        </mxCell>
        <mxCell id="u4YXkt8dIdVdWwFaIPzx-75" value="Role" style="shape=table;startSize=30;container=1;collapsible=1;childLayout=tableLayout;fixedRows=1;rowLines=0;fontStyle=1;align=center;resizeLast=1;strokeWidth=1;" parent="1" vertex="1">
          <mxGeometry x="-250" y="-993" width="181" height="120" as="geometry" />
        </mxCell>
        <mxCell id="u4YXkt8dIdVdWwFaIPzx-76" value="" style="shape=partialRectangle;collapsible=0;dropTarget=0;pointerEvents=0;fillColor=none;top=0;left=0;bottom=1;right=0;points=[[0,0.5],[1,0.5]];portConstraint=eastwest;" parent="u4YXkt8dIdVdWwFaIPzx-75" vertex="1">
          <mxGeometry y="30" width="181" height="30" as="geometry" />
        </mxCell>
        <mxCell id="u4YXkt8dIdVdWwFaIPzx-77" value="PK" style="shape=partialRectangle;connectable=0;fillColor=none;top=0;left=0;bottom=0;right=0;fontStyle=1;overflow=hidden;" parent="u4YXkt8dIdVdWwFaIPzx-76" vertex="1">
          <mxGeometry width="30" height="30" as="geometry" />
        </mxCell>
        <mxCell id="u4YXkt8dIdVdWwFaIPzx-78" value="role_id" style="shape=partialRectangle;connectable=0;fillColor=none;top=0;left=0;bottom=0;right=0;align=left;spacingLeft=6;fontStyle=5;overflow=hidden;" parent="u4YXkt8dIdVdWwFaIPzx-76" vertex="1">
          <mxGeometry x="30" width="151" height="30" as="geometry" />
        </mxCell>
        <mxCell id="u4YXkt8dIdVdWwFaIPzx-79" value="" style="shape=partialRectangle;collapsible=0;dropTarget=0;pointerEvents=0;fillColor=none;top=0;left=0;bottom=0;right=0;points=[[0,0.5],[1,0.5]];portConstraint=eastwest;strokeWidth=10;" parent="u4YXkt8dIdVdWwFaIPzx-75" vertex="1">
          <mxGeometry y="60" width="181" height="30" as="geometry" />
        </mxCell>
        <mxCell id="u4YXkt8dIdVdWwFaIPzx-80" value="" style="shape=partialRectangle;connectable=0;fillColor=none;top=0;left=0;bottom=0;right=0;editable=1;overflow=hidden;" parent="u4YXkt8dIdVdWwFaIPzx-79" vertex="1">
          <mxGeometry width="30" height="30" as="geometry" />
        </mxCell>
        <mxCell id="u4YXkt8dIdVdWwFaIPzx-81" value="name" style="shape=partialRectangle;connectable=0;fillColor=none;top=0;left=0;bottom=0;right=0;align=left;spacingLeft=6;overflow=hidden;" parent="u4YXkt8dIdVdWwFaIPzx-79" vertex="1">
          <mxGeometry x="30" width="151" height="30" as="geometry" />
        </mxCell>
        <mxCell id="u4YXkt8dIdVdWwFaIPzx-82" value="" style="shape=partialRectangle;collapsible=0;dropTarget=0;pointerEvents=0;fillColor=none;top=0;left=0;bottom=0;right=0;points=[[0,0.5],[1,0.5]];portConstraint=eastwest;strokeWidth=11;" parent="u4YXkt8dIdVdWwFaIPzx-75" vertex="1">
          <mxGeometry y="90" width="181" height="30" as="geometry" />
        </mxCell>
        <mxCell id="u4YXkt8dIdVdWwFaIPzx-83" value="" style="shape=partialRectangle;connectable=0;fillColor=none;top=0;left=0;bottom=0;right=0;editable=1;overflow=hidden;" parent="u4YXkt8dIdVdWwFaIPzx-82" vertex="1">
          <mxGeometry width="30" height="30" as="geometry" />
        </mxCell>
        <mxCell id="u4YXkt8dIdVdWwFaIPzx-84" value="is_active" style="shape=partialRectangle;connectable=0;fillColor=none;top=0;left=0;bottom=0;right=0;align=left;spacingLeft=6;overflow=hidden;" parent="u4YXkt8dIdVdWwFaIPzx-82" vertex="1">
          <mxGeometry x="30" width="151" height="30" as="geometry" />
        </mxCell>
        <mxCell id="u4YXkt8dIdVdWwFaIPzx-86" value="" style="edgeStyle=entityRelationEdgeStyle;fontSize=12;html=1;endArrow=ERzeroToMany;startArrow=ERmandOne;fillColor=#f8cecc;strokeColor=#b85450;exitX=1;exitY=0.5;exitDx=0;exitDy=0;entryX=1;entryY=0.5;entryDx=0;entryDy=0;" parent="1" source="u4YXkt8dIdVdWwFaIPzx-76" target="u4YXkt8dIdVdWwFaIPzx-33" edge="1">
          <mxGeometry width="100" height="100" relative="1" as="geometry">
            <mxPoint x="-30" y="-943" as="sourcePoint" />
            <mxPoint x="-30" y="-1033" as="targetPoint" />
          </mxGeometry>
        </mxCell>
        <mxCell id="u4YXkt8dIdVdWwFaIPzx-87" value="studio_severies" style="shape=table;startSize=30;container=1;collapsible=1;childLayout=tableLayout;fixedRows=1;rowLines=0;fontStyle=1;align=center;resizeLast=1;strokeWidth=1;" parent="1" vertex="1">
          <mxGeometry y="-1329" width="181" height="120" as="geometry" />
        </mxCell>
        <mxCell id="u4YXkt8dIdVdWwFaIPzx-88" value="" style="shape=partialRectangle;collapsible=0;dropTarget=0;pointerEvents=0;fillColor=none;top=0;left=0;bottom=1;right=0;points=[[0,0.5],[1,0.5]];portConstraint=eastwest;" parent="u4YXkt8dIdVdWwFaIPzx-87" vertex="1">
          <mxGeometry y="30" width="181" height="30" as="geometry" />
        </mxCell>
        <mxCell id="u4YXkt8dIdVdWwFaIPzx-89" value="PK" style="shape=partialRectangle;connectable=0;fillColor=none;top=0;left=0;bottom=0;right=0;fontStyle=1;overflow=hidden;" parent="u4YXkt8dIdVdWwFaIPzx-88" vertex="1">
          <mxGeometry width="30" height="30" as="geometry" />
        </mxCell>
        <mxCell id="u4YXkt8dIdVdWwFaIPzx-90" value="id" style="shape=partialRectangle;connectable=0;fillColor=none;top=0;left=0;bottom=0;right=0;align=left;spacingLeft=6;fontStyle=5;overflow=hidden;" parent="u4YXkt8dIdVdWwFaIPzx-88" vertex="1">
          <mxGeometry x="30" width="151" height="30" as="geometry" />
        </mxCell>
        <mxCell id="u4YXkt8dIdVdWwFaIPzx-125" style="shape=partialRectangle;collapsible=0;dropTarget=0;pointerEvents=0;fillColor=none;top=0;left=0;bottom=1;right=0;points=[[0,0.5],[1,0.5]];portConstraint=eastwest;" parent="u4YXkt8dIdVdWwFaIPzx-87" vertex="1">
          <mxGeometry y="60" width="181" height="30" as="geometry" />
        </mxCell>
        <mxCell id="u4YXkt8dIdVdWwFaIPzx-126" value="FK" style="shape=partialRectangle;connectable=0;fillColor=none;top=0;left=0;bottom=0;right=0;fontStyle=1;overflow=hidden;" parent="u4YXkt8dIdVdWwFaIPzx-125" vertex="1">
          <mxGeometry width="30" height="30" as="geometry" />
        </mxCell>
        <mxCell id="u4YXkt8dIdVdWwFaIPzx-127" value="studio_id" style="shape=partialRectangle;connectable=0;fillColor=none;top=0;left=0;bottom=0;right=0;align=left;spacingLeft=6;fontStyle=1;overflow=hidden;" parent="u4YXkt8dIdVdWwFaIPzx-125" vertex="1">
          <mxGeometry x="30" width="151" height="30" as="geometry" />
        </mxCell>
        <mxCell id="u4YXkt8dIdVdWwFaIPzx-91" style="shape=partialRectangle;collapsible=0;dropTarget=0;pointerEvents=0;fillColor=none;top=0;left=0;bottom=1;right=0;points=[[0,0.5],[1,0.5]];portConstraint=eastwest;" parent="u4YXkt8dIdVdWwFaIPzx-87" vertex="1">
          <mxGeometry y="90" width="181" height="30" as="geometry" />
        </mxCell>
        <mxCell id="u4YXkt8dIdVdWwFaIPzx-92" value="FK" style="shape=partialRectangle;connectable=0;fillColor=none;top=0;left=0;bottom=0;right=0;fontStyle=1;overflow=hidden;" parent="u4YXkt8dIdVdWwFaIPzx-91" vertex="1">
          <mxGeometry width="30" height="30" as="geometry" />
        </mxCell>
        <mxCell id="u4YXkt8dIdVdWwFaIPzx-93" value="service_id" style="shape=partialRectangle;connectable=0;fillColor=none;top=0;left=0;bottom=0;right=0;align=left;spacingLeft=6;fontStyle=1;overflow=hidden;" parent="u4YXkt8dIdVdWwFaIPzx-91" vertex="1">
          <mxGeometry x="30" width="151" height="30" as="geometry" />
        </mxCell>
        <mxCell id="u4YXkt8dIdVdWwFaIPzx-109" value="Studio_passes_mapping" style="shape=table;startSize=30;container=1;collapsible=1;childLayout=tableLayout;fixedRows=1;rowLines=0;fontStyle=1;align=center;resizeLast=1;strokeWidth=1;" parent="1" vertex="1">
          <mxGeometry y="-1703" width="181" height="150" as="geometry" />
        </mxCell>
        <mxCell id="u4YXkt8dIdVdWwFaIPzx-110" value="" style="shape=partialRectangle;collapsible=0;dropTarget=0;pointerEvents=0;fillColor=none;top=0;left=0;bottom=1;right=0;points=[[0,0.5],[1,0.5]];portConstraint=eastwest;" parent="u4YXkt8dIdVdWwFaIPzx-109" vertex="1">
          <mxGeometry y="30" width="181" height="30" as="geometry" />
        </mxCell>
        <mxCell id="u4YXkt8dIdVdWwFaIPzx-111" value="PK" style="shape=partialRectangle;connectable=0;fillColor=none;top=0;left=0;bottom=0;right=0;fontStyle=1;overflow=hidden;" parent="u4YXkt8dIdVdWwFaIPzx-110" vertex="1">
          <mxGeometry width="30" height="30" as="geometry" />
        </mxCell>
        <mxCell id="u4YXkt8dIdVdWwFaIPzx-112" value="id" style="shape=partialRectangle;connectable=0;fillColor=none;top=0;left=0;bottom=0;right=0;align=left;spacingLeft=6;fontStyle=5;overflow=hidden;" parent="u4YXkt8dIdVdWwFaIPzx-110" vertex="1">
          <mxGeometry x="30" width="151" height="30" as="geometry" />
        </mxCell>
        <mxCell id="u4YXkt8dIdVdWwFaIPzx-113" value="" style="shape=partialRectangle;collapsible=0;dropTarget=0;pointerEvents=0;fillColor=none;top=0;left=0;bottom=1;right=0;points=[[0,0.5],[1,0.5]];portConstraint=eastwest;strokeWidth=1;labelBorderColor=#000000;whiteSpace=wrap;verticalAlign=middle;strokeOpacity=100;" parent="u4YXkt8dIdVdWwFaIPzx-109" vertex="1">
          <mxGeometry y="60" width="181" height="30" as="geometry" />
        </mxCell>
        <mxCell id="u4YXkt8dIdVdWwFaIPzx-114" value="FK" style="shape=partialRectangle;connectable=0;fillColor=none;top=0;left=0;bottom=0;right=0;editable=1;overflow=hidden;fontStyle=1" parent="u4YXkt8dIdVdWwFaIPzx-113" vertex="1">
          <mxGeometry width="30" height="30" as="geometry" />
        </mxCell>
        <mxCell id="u4YXkt8dIdVdWwFaIPzx-115" value="studio_type_id" style="shape=partialRectangle;connectable=0;fillColor=none;top=0;left=0;bottom=0;right=0;align=left;spacingLeft=6;overflow=hidden;fontStyle=1" parent="u4YXkt8dIdVdWwFaIPzx-113" vertex="1">
          <mxGeometry x="30" width="151" height="30" as="geometry" />
        </mxCell>
        <mxCell id="u4YXkt8dIdVdWwFaIPzx-116" value="" style="shape=partialRectangle;collapsible=0;dropTarget=0;pointerEvents=0;fillColor=none;top=0;left=0;bottom=1;right=0;points=[[0,0.5],[1,0.5]];portConstraint=eastwest;strokeWidth=1;" parent="u4YXkt8dIdVdWwFaIPzx-109" vertex="1">
          <mxGeometry y="90" width="181" height="30" as="geometry" />
        </mxCell>
        <mxCell id="u4YXkt8dIdVdWwFaIPzx-117" value="FK" style="shape=partialRectangle;connectable=0;fillColor=none;top=0;left=0;bottom=0;right=0;editable=1;overflow=hidden;fontStyle=1" parent="u4YXkt8dIdVdWwFaIPzx-116" vertex="1">
          <mxGeometry width="30" height="30" as="geometry" />
        </mxCell>
        <mxCell id="u4YXkt8dIdVdWwFaIPzx-118" value="pass_cat_id" style="shape=partialRectangle;connectable=0;fillColor=none;top=0;left=0;bottom=0;right=0;align=left;spacingLeft=6;overflow=hidden;fontStyle=1" parent="u4YXkt8dIdVdWwFaIPzx-116" vertex="1">
          <mxGeometry x="30" width="151" height="30" as="geometry" />
        </mxCell>
        <mxCell id="u4YXkt8dIdVdWwFaIPzx-119" style="shape=partialRectangle;collapsible=0;dropTarget=0;pointerEvents=0;fillColor=none;top=0;left=0;bottom=0;right=0;points=[[0,0.5],[1,0.5]];portConstraint=eastwest;strokeWidth=11;" parent="u4YXkt8dIdVdWwFaIPzx-109" vertex="1">
          <mxGeometry y="120" width="181" height="30" as="geometry" />
        </mxCell>
        <mxCell id="u4YXkt8dIdVdWwFaIPzx-120" style="shape=partialRectangle;connectable=0;fillColor=none;top=0;left=0;bottom=0;right=0;editable=1;overflow=hidden;" parent="u4YXkt8dIdVdWwFaIPzx-119" vertex="1">
          <mxGeometry width="30" height="30" as="geometry" />
        </mxCell>
        <mxCell id="u4YXkt8dIdVdWwFaIPzx-121" value="is_active" style="shape=partialRectangle;connectable=0;fillColor=none;top=0;left=0;bottom=0;right=0;align=left;spacingLeft=6;overflow=hidden;" parent="u4YXkt8dIdVdWwFaIPzx-119" vertex="1">
          <mxGeometry x="30" width="151" height="30" as="geometry" />
        </mxCell>
        <mxCell id="u4YXkt8dIdVdWwFaIPzx-122" value="" style="edgeStyle=entityRelationEdgeStyle;fontSize=12;html=1;endArrow=ERzeroToMany;startArrow=ERmandOne;fillColor=#f8cecc;strokeColor=#b85450;entryX=0;entryY=0.5;entryDx=0;entryDy=0;exitX=1.017;exitY=0.267;exitDx=0;exitDy=0;exitPerimeter=0;" parent="1" source="C_CdFiHfuuK_WF809C5B-2" target="u4YXkt8dIdVdWwFaIPzx-113" edge="1">
          <mxGeometry width="100" height="100" relative="1" as="geometry">
            <mxPoint x="-60" y="-1671" as="sourcePoint" />
            <mxPoint x="-40" y="-1557.99" as="targetPoint" />
          </mxGeometry>
        </mxCell>
        <mxCell id="u4YXkt8dIdVdWwFaIPzx-123" value="" style="edgeStyle=entityRelationEdgeStyle;fontSize=12;html=1;endArrow=ERzeroToMany;startArrow=ERmandOne;fillColor=#f8cecc;strokeColor=#b85450;exitX=0;exitY=0.5;exitDx=0;exitDy=0;" parent="1" source="C_CdFiHfuuK_WF809C5B-21" target="u4YXkt8dIdVdWwFaIPzx-116" edge="1">
          <mxGeometry width="100" height="100" relative="1" as="geometry">
            <mxPoint x="220" y="-1693" as="sourcePoint" />
            <mxPoint x="210" y="-1703" as="targetPoint" />
          </mxGeometry>
        </mxCell>
        <mxCell id="u4YXkt8dIdVdWwFaIPzx-128" value="" style="edgeStyle=entityRelationEdgeStyle;fontSize=12;html=1;endArrow=ERzeroToMany;startArrow=ERmandOne;fillColor=#f8cecc;strokeColor=#b85450;entryX=0;entryY=0.333;entryDx=0;entryDy=0;entryPerimeter=0;exitX=1.017;exitY=0.233;exitDx=0;exitDy=0;exitPerimeter=0;strokeWidth=1;" parent="1" source="C_CdFiHfuuK_WF809C5B-58" target="u4YXkt8dIdVdWwFaIPzx-125" edge="1">
          <mxGeometry width="100" height="100" relative="1" as="geometry">
            <mxPoint x="-60" y="-1533" as="sourcePoint" />
            <mxPoint x="-10" y="-1376.99" as="targetPoint" />
          </mxGeometry>
        </mxCell>
        <mxCell id="u4YXkt8dIdVdWwFaIPzx-129" value="Services" style="shape=table;startSize=30;container=1;collapsible=1;childLayout=tableLayout;fixedRows=1;rowLines=0;fontStyle=1;align=center;resizeLast=1;strokeWidth=1;" parent="1" vertex="1">
          <mxGeometry x="230" y="-1313" width="181" height="160" as="geometry" />
        </mxCell>
        <mxCell id="u4YXkt8dIdVdWwFaIPzx-130" value="" style="shape=partialRectangle;collapsible=0;dropTarget=0;pointerEvents=0;fillColor=none;top=0;left=0;bottom=1;right=0;points=[[0,0.5],[1,0.5]];portConstraint=eastwest;" parent="u4YXkt8dIdVdWwFaIPzx-129" vertex="1">
          <mxGeometry y="30" width="181" height="30" as="geometry" />
        </mxCell>
        <mxCell id="u4YXkt8dIdVdWwFaIPzx-131" value="PK" style="shape=partialRectangle;connectable=0;fillColor=none;top=0;left=0;bottom=0;right=0;fontStyle=1;overflow=hidden;" parent="u4YXkt8dIdVdWwFaIPzx-130" vertex="1">
          <mxGeometry width="30" height="30" as="geometry" />
        </mxCell>
        <mxCell id="u4YXkt8dIdVdWwFaIPzx-132" value="sevice_id" style="shape=partialRectangle;connectable=0;fillColor=none;top=0;left=0;bottom=0;right=0;align=left;spacingLeft=6;fontStyle=1;overflow=hidden;" parent="u4YXkt8dIdVdWwFaIPzx-130" vertex="1">
          <mxGeometry x="30" width="151" height="30" as="geometry" />
        </mxCell>
        <mxCell id="UfZo-TvrVXLiCiqALnVR-5" style="shape=partialRectangle;collapsible=0;dropTarget=0;pointerEvents=0;fillColor=none;top=0;left=0;bottom=1;right=0;points=[[0,0.5],[1,0.5]];portConstraint=eastwest;" vertex="1" parent="u4YXkt8dIdVdWwFaIPzx-129">
          <mxGeometry y="60" width="181" height="30" as="geometry" />
        </mxCell>
        <mxCell id="UfZo-TvrVXLiCiqALnVR-6" value="FK" style="shape=partialRectangle;connectable=0;fillColor=none;top=0;left=0;bottom=0;right=0;fontStyle=1;overflow=hidden;" vertex="1" parent="UfZo-TvrVXLiCiqALnVR-5">
          <mxGeometry width="30" height="30" as="geometry" />
        </mxCell>
        <mxCell id="UfZo-TvrVXLiCiqALnVR-7" value="service_type_id" style="shape=partialRectangle;connectable=0;fillColor=none;top=0;left=0;bottom=0;right=0;align=left;spacingLeft=6;fontStyle=1;overflow=hidden;" vertex="1" parent="UfZo-TvrVXLiCiqALnVR-5">
          <mxGeometry x="30" width="151" height="30" as="geometry" />
        </mxCell>
        <mxCell id="u4YXkt8dIdVdWwFaIPzx-133" value="" style="shape=partialRectangle;collapsible=0;dropTarget=0;pointerEvents=0;fillColor=none;top=0;left=0;bottom=0;right=0;points=[[0,0.5],[1,0.5]];portConstraint=eastwest;strokeWidth=10;" parent="u4YXkt8dIdVdWwFaIPzx-129" vertex="1">
          <mxGeometry y="90" width="181" height="40" as="geometry" />
        </mxCell>
        <mxCell id="u4YXkt8dIdVdWwFaIPzx-134" value="" style="shape=partialRectangle;connectable=0;fillColor=none;top=0;left=0;bottom=0;right=0;editable=1;overflow=hidden;" parent="u4YXkt8dIdVdWwFaIPzx-133" vertex="1">
          <mxGeometry width="30" height="40" as="geometry" />
        </mxCell>
        <mxCell id="u4YXkt8dIdVdWwFaIPzx-135" value="name" style="shape=partialRectangle;connectable=0;fillColor=none;top=0;left=0;bottom=0;right=0;align=left;spacingLeft=6;overflow=hidden;" parent="u4YXkt8dIdVdWwFaIPzx-133" vertex="1">
          <mxGeometry x="30" width="151" height="40" as="geometry" />
        </mxCell>
        <mxCell id="u4YXkt8dIdVdWwFaIPzx-136" value="" style="shape=partialRectangle;collapsible=0;dropTarget=0;pointerEvents=0;fillColor=none;top=0;left=0;bottom=0;right=0;points=[[0,0.5],[1,0.5]];portConstraint=eastwest;strokeWidth=11;" parent="u4YXkt8dIdVdWwFaIPzx-129" vertex="1">
          <mxGeometry y="130" width="181" height="30" as="geometry" />
        </mxCell>
        <mxCell id="u4YXkt8dIdVdWwFaIPzx-137" value="" style="shape=partialRectangle;connectable=0;fillColor=none;top=0;left=0;bottom=0;right=0;editable=1;overflow=hidden;" parent="u4YXkt8dIdVdWwFaIPzx-136" vertex="1">
          <mxGeometry width="30" height="30" as="geometry" />
        </mxCell>
        <mxCell id="u4YXkt8dIdVdWwFaIPzx-138" value="is_active" style="shape=partialRectangle;connectable=0;fillColor=none;top=0;left=0;bottom=0;right=0;align=left;spacingLeft=6;overflow=hidden;" parent="u4YXkt8dIdVdWwFaIPzx-136" vertex="1">
          <mxGeometry x="30" width="151" height="30" as="geometry" />
        </mxCell>
        <mxCell id="u4YXkt8dIdVdWwFaIPzx-139" value="" style="edgeStyle=entityRelationEdgeStyle;fontSize=12;html=1;endArrow=ERzeroToMany;startArrow=ERmandOne;fontColor=none;fillColor=#f8cecc;strokeColor=#b85450;" parent="1" source="u4YXkt8dIdVdWwFaIPzx-130" target="u4YXkt8dIdVdWwFaIPzx-91" edge="1">
          <mxGeometry width="100" height="100" relative="1" as="geometry">
            <mxPoint x="170" y="-1263" as="sourcePoint" />
            <mxPoint x="200" y="-1423" as="targetPoint" />
          </mxGeometry>
        </mxCell>
        <mxCell id="UfZo-TvrVXLiCiqALnVR-4" value="" style="edgeStyle=entityRelationEdgeStyle;fontSize=12;html=1;endArrow=ERzeroToMany;startArrow=ERmandOne;fillColor=#f8cecc;exitX=1;exitY=0.5;exitDx=0;exitDy=0;strokeWidth=2;strokeColor=#EA6B66;" edge="1" parent="1" source="C_CdFiHfuuK_WF809C5B-2">
          <mxGeometry width="100" height="100" relative="1" as="geometry">
            <mxPoint x="-20" y="-1563" as="sourcePoint" />
            <mxPoint x="10" y="-1458" as="targetPoint" />
          </mxGeometry>
        </mxCell>
        <mxCell id="UfZo-TvrVXLiCiqALnVR-8" value="severice_type" style="shape=table;startSize=30;container=1;collapsible=1;childLayout=tableLayout;fixedRows=1;rowLines=0;fontStyle=1;align=center;resizeLast=1;strokeWidth=1;" vertex="1" parent="1">
          <mxGeometry x="2" y="-1540" width="181" height="150" as="geometry" />
        </mxCell>
        <mxCell id="UfZo-TvrVXLiCiqALnVR-9" value="" style="shape=partialRectangle;collapsible=0;dropTarget=0;pointerEvents=0;fillColor=none;top=0;left=0;bottom=1;right=0;points=[[0,0.5],[1,0.5]];portConstraint=eastwest;" vertex="1" parent="UfZo-TvrVXLiCiqALnVR-8">
          <mxGeometry y="30" width="181" height="30" as="geometry" />
        </mxCell>
        <mxCell id="UfZo-TvrVXLiCiqALnVR-10" value="PK" style="shape=partialRectangle;connectable=0;fillColor=none;top=0;left=0;bottom=0;right=0;fontStyle=1;overflow=hidden;" vertex="1" parent="UfZo-TvrVXLiCiqALnVR-9">
          <mxGeometry width="30" height="30" as="geometry" />
        </mxCell>
        <mxCell id="UfZo-TvrVXLiCiqALnVR-11" value="id" style="shape=partialRectangle;connectable=0;fillColor=none;top=0;left=0;bottom=0;right=0;align=left;spacingLeft=6;fontStyle=5;overflow=hidden;" vertex="1" parent="UfZo-TvrVXLiCiqALnVR-9">
          <mxGeometry x="30" width="151" height="30" as="geometry" />
        </mxCell>
        <mxCell id="UfZo-TvrVXLiCiqALnVR-18" style="shape=partialRectangle;collapsible=0;dropTarget=0;pointerEvents=0;fillColor=none;top=0;left=0;bottom=1;right=0;points=[[0,0.5],[1,0.5]];portConstraint=eastwest;" vertex="1" parent="UfZo-TvrVXLiCiqALnVR-8">
          <mxGeometry y="60" width="181" height="30" as="geometry" />
        </mxCell>
        <mxCell id="UfZo-TvrVXLiCiqALnVR-19" value="FK" style="shape=partialRectangle;connectable=0;fillColor=none;top=0;left=0;bottom=0;right=0;fontStyle=1;overflow=hidden;" vertex="1" parent="UfZo-TvrVXLiCiqALnVR-18">
          <mxGeometry width="30" height="30" as="geometry" />
        </mxCell>
        <mxCell id="UfZo-TvrVXLiCiqALnVR-20" value="studio_type_id" style="shape=partialRectangle;connectable=0;fillColor=none;top=0;left=0;bottom=0;right=0;align=left;spacingLeft=6;fontStyle=5;overflow=hidden;" vertex="1" parent="UfZo-TvrVXLiCiqALnVR-18">
          <mxGeometry x="30" width="151" height="30" as="geometry" />
        </mxCell>
        <mxCell id="UfZo-TvrVXLiCiqALnVR-12" style="shape=partialRectangle;collapsible=0;dropTarget=0;pointerEvents=0;fillColor=none;top=0;left=0;bottom=1;right=0;points=[[0,0.5],[1,0.5]];portConstraint=eastwest;" vertex="1" parent="UfZo-TvrVXLiCiqALnVR-8">
          <mxGeometry y="90" width="181" height="30" as="geometry" />
        </mxCell>
        <mxCell id="UfZo-TvrVXLiCiqALnVR-13" value="" style="shape=partialRectangle;connectable=0;fillColor=none;top=0;left=0;bottom=0;right=0;fontStyle=1;overflow=hidden;" vertex="1" parent="UfZo-TvrVXLiCiqALnVR-12">
          <mxGeometry width="30" height="30" as="geometry" />
        </mxCell>
        <mxCell id="UfZo-TvrVXLiCiqALnVR-14" value="Name" style="shape=partialRectangle;connectable=0;fillColor=none;top=0;left=0;bottom=0;right=0;align=left;spacingLeft=6;fontStyle=1;overflow=hidden;" vertex="1" parent="UfZo-TvrVXLiCiqALnVR-12">
          <mxGeometry x="30" width="151" height="30" as="geometry" />
        </mxCell>
        <mxCell id="UfZo-TvrVXLiCiqALnVR-15" style="shape=partialRectangle;collapsible=0;dropTarget=0;pointerEvents=0;fillColor=none;top=0;left=0;bottom=1;right=0;points=[[0,0.5],[1,0.5]];portConstraint=eastwest;" vertex="1" parent="UfZo-TvrVXLiCiqALnVR-8">
          <mxGeometry y="120" width="181" height="30" as="geometry" />
        </mxCell>
        <mxCell id="UfZo-TvrVXLiCiqALnVR-16" value="" style="shape=partialRectangle;connectable=0;fillColor=none;top=0;left=0;bottom=0;right=0;fontStyle=1;overflow=hidden;" vertex="1" parent="UfZo-TvrVXLiCiqALnVR-15">
          <mxGeometry width="30" height="30" as="geometry" />
        </mxCell>
        <mxCell id="UfZo-TvrVXLiCiqALnVR-17" value="is_active" style="shape=partialRectangle;connectable=0;fillColor=none;top=0;left=0;bottom=0;right=0;align=left;spacingLeft=6;fontStyle=1;overflow=hidden;" vertex="1" parent="UfZo-TvrVXLiCiqALnVR-15">
          <mxGeometry x="30" width="151" height="30" as="geometry" />
        </mxCell>
        <mxCell id="UfZo-TvrVXLiCiqALnVR-21" value="" style="edgeStyle=entityRelationEdgeStyle;fontSize=12;html=1;endArrow=ERzeroToMany;startArrow=ERmandOne;fillColor=#f8cecc;strokeColor=#b85450;exitX=1;exitY=0.5;exitDx=0;exitDy=0;" edge="1" parent="1">
          <mxGeometry width="100" height="100" relative="1" as="geometry">
            <mxPoint x="184" y="-1495" as="sourcePoint" />
            <mxPoint x="226" y="-1235" as="targetPoint" />
          </mxGeometry>
        </mxCell>
      </root>
    </mxGraphModel>
  </diagram>
</mxfile>
